<svg width="36" height="36" viewBox="0 0 36 36" fill="none" xmlns="http://www.w3.org/2000/svg">
<circle opacity="0.35" cx="18" cy="18" r="18" fill="black"/>
<path d="M26.3623 9.64563H26.8618V9.14507H26.3623V9.64563ZM19.0879 10.1462L26.3623 10.1462V9.14507L19.0879 9.14507L19.0879 10.1462ZM25.8629 9.64563L25.8629 16.9365L26.8618 16.9365L26.8618 9.64563H25.8629Z" fill="#FCFCFC"/>
<line y1="-0.5" x2="10.1647" y2="-0.5" transform="matrix(-0.70631 0.707903 -0.70631 -0.707903 25.8225 9.43253)" stroke="#FCFCFC"/>
<path d="M9.63768 26.355H9.13824V26.8555H9.63768V26.355ZM16.9121 25.8544L9.63768 25.8544V26.8555L16.9121 26.8555L16.9121 25.8544ZM10.1371 26.355L10.1371 19.0641L9.13824 19.0641L9.13824 26.355H10.1371Z" fill="#FCFCFC"/>
<line y1="-0.5" x2="10.1647" y2="-0.5" transform="matrix(0.70631 -0.707903 0.70631 0.707903 10.2283 26.4272)" stroke="#FCFCFC"/>
</svg>
